# xmcd
#
# Track frame offsets:
#	150
#	15147
#	25160
#	36740
#	48858
#	59505
#	74596
#	86257
#	97806
#	108907
#	123494
#	135752
#	146940
#	156840
#	169347
#	178985
#	196139
#	206078
#	217349
#	230101
#
# Disc length: 3213 seconds
#
# Revision: 1
# Processed by: cddbd v1.5.2PL0 Copyright (c) Steve Scherf et al.
# Submitted via: audiograbber 1.83.01
#
DISCID=250c8b14
DTITLE=Various Artist - New Orleans: Gris Gris [CD 1)
DYEAR=2013
DGENRE=Blues
TTITLE0=Dr. John - Zu Zu Man
TTITLE1=Tami Lynn - Mojo Hana
TTITLE2=Oliver Morgan - The La La Man
TTITLE3=Fats Domino - Bad Luck and Trouble
TTITLE4=Prince La La - She Put the Hurt On Me
TTITLE5=The Meters - Art Neville - I'm Gonna Put Some Hurt On You
TTITLE6=Irma Thomas - Somebody Told You
TTITLE7=Barbara Lynn - You're Gonna Need Me
TTITLE8=Curly Moore - Get Low Down
TTITLE9=Johnny Adams - Life is Just a Struggle
TTITLE10=Lee Dorsey - Occapella
TTITLE11=Eddie Bo - Inez Cheatham - Lover and a Friend
TTITLE12=Huey "Piano" Smith - Free, Single and Disengaged
TTITLE13=Robert Parker - All Night Long, Pt. 1 and 2
TTITLE14=Slim Harpo - Strange Love
TTITLE15=Skip Easterling - I'm Your Hoochie Coochie Man
TTITLE16=Clarence "Frogman" Henry - It Won't Be Long
TTITLE17=Guitar Slim - Sufferin' Mind
TTITLE18=Juke Boy Bonner - Can't Hardly Keep From Cryin'
TTITLE19=James "Sugarboy" Crawford - Jock-a-Mo
EXTD=Metro Select   #METRSL057\n
EXTT0=
EXTT1=
EXTT2=
EXTT3=
EXTT4=
EXTT5=
EXTT6=
EXTT7=
EXTT8=
EXTT9=
EXTT10=
EXTT11=
EXTT12=
EXTT13=
EXTT14=
EXTT15=
EXTT16=
EXTT17=
EXTT18=
EXTT19=
PLAYORDER=
